HIERARCHY
ROOT Hips
{
	OFFSET -0.179506 -22.333345 2.821913
	CHANNELS 6 Xposition Yposition Zposition Zrotation Yrotation Xrotation 
	JOINT LeftUpLeg
	{
		OFFSET 6.951974 -9.140623 -0.681533
		CHANNELS 3 Zrotation Yrotation Xrotation
		JOINT LeftLeg
		{
			OFFSET 3.427654 -37.519855 -0.449580
			CHANNELS 3 Zrotation Yrotation Xrotation
			JOINT LeftFoot
			{
				OFFSET -1.359570 -39.796059 -4.369333
				CHANNELS 3 Zrotation Yrotation Xrotation
				JOINT LeftToe
				{
					OFFSET 2.635814 -5.579078 11.928840
					CHANNELS 3 Zrotation Yrotation Xrotation
					End Site
					{
						OFFSET 0.000000 0.000000 0.000000
					}
				}
			}
		}
	}
	JOINT RightUpLeg
	{
		OFFSET -6.767048 -9.052170 -0.431982
		CHANNELS 3 Zrotation Yrotation Xrotation
		JOINT RightLeg
		{
			OFFSET -3.829005 -38.256897 -0.885003
			CHANNELS 3 Zrotation Yrotation Xrotation
			JOINT RightFoot
			{
				OFFSET 1.577377 -39.841461 -4.231180
				CHANNELS 3 Zrotation Yrotation Xrotation
				JOINT RightToe
				{
					OFFSET -2.537174 -4.814398 12.334795
					CHANNELS 3 Zrotation Yrotation Xrotation
					End Site
					{
						OFFSET 0.000000 0.000000 0.000000
					}
				}
			}
		}
	}
	JOINT Spine
	{
		OFFSET -0.253288 10.896323 -2.669631
		CHANNELS 3 Zrotation Yrotation Xrotation
		JOINT Spine1
		{
			OFFSET 0.548704 13.518043 0.109247
			CHANNELS 3 Zrotation Yrotation Xrotation
			JOINT Spine2
			{
				OFFSET 0.145701 5.292222 2.542457
				CHANNELS 3 Zrotation Yrotation Xrotation
				JOINT Neck
				{
					OFFSET -0.277840 21.387037 -4.285703
					CHANNELS 3 Zrotation Yrotation Xrotation
					JOINT Head
					{
						OFFSET 0.515184 6.496960 5.134897
						CHANNELS 3 Zrotation Yrotation Xrotation
						End Site
						{
							OFFSET 0.000000 0.000000 0.000000
						}
					}
				}
				JOINT LeftShoulder
				{
					OFFSET 7.884473 12.174932 -3.408961
					CHANNELS 3 Zrotation Yrotation Xrotation
					JOINT LeftArm
					{
						OFFSET 9.097692 3.046888 -0.886815
						CHANNELS 3 Zrotation Yrotation Xrotation
						JOINT LeftForeArm
						{
							OFFSET 25.961220 -1.277207 -2.745643
							CHANNELS 3 Zrotation Yrotation Xrotation
							JOINT LeftHand
							{
								OFFSET 24.923361 0.898606 -0.117091
								CHANNELS 3 Zrotation Yrotation Xrotation
								End Site
								{
									OFFSET 0.000000 0.000000 0.000000
								}
							}
						}
					}
				}
				JOINT RightShoulder
				{
					OFFSET -8.175920 11.883285 -3.861528
					CHANNELS 3 Zrotation Yrotation Xrotation
					JOINT RightArm
					{
						OFFSET -9.601238 3.255117 -0.914307
						CHANNELS 3 Zrotation Yrotation Xrotation
						JOINT RightForeArm
						{
							OFFSET -25.374195 -1.332924 -2.140099
							CHANNELS 3 Zrotation Yrotation Xrotation
							JOINT RightHand
							{
								OFFSET -25.529810 0.777228 -0.555919
								CHANNELS 3 Zrotation Yrotation Xrotation
								End Site
								{
									OFFSET 0.000000 0.000000 0.000000
								}
							}
						}
					}
				}
			}
		}
	}
}
MOTION
Frames: 16
Frame Time: 0.033333
-27.567413 -96.032280 95.030518 -173.348530 1.069776 85.941554 -1.119862 -0.569234 3.626902 -7.864541 -12.631369 19.402843 -3.210441 3.847321 -17.477839 nan nan nan -1.974223 -4.514097 -21.252183 3.271988 -7.974210 10.781423 4.380765 -7.172773 6.504902 nan nan nan -3.983254 -3.205438 6.986664 8.427373 -5.449363 3.894138 4.101015 -4.744382 -0.743782 1.157977 -1.510715 10.491898 6.424592 0.893003 0.260290 -16.400211 2.135655 0.663685 -66.610540 -19.905094 14.258398 22.818187 -30.754926 -33.805544 -6.103749 -22.107320 -15.837681 19.427170 -3.966151 -2.657800 57.392951 5.011888 7.413109 -9.086287 26.729004 -9.821100 13.240861 13.405510 -8.332990 
-27.666603 -96.562035 95.121841 -173.801630 0.878790 85.771467 -1.500111 -0.456787 3.656766 -7.619568 -12.331085 18.923699 -3.489204 3.886929 -16.837509 nan nan nan -2.164008 -4.362604 -21.446796 3.027136 -7.987612 11.654605 3.989911 -7.231829 6.456972 nan nan nan -3.923916 -3.179697 7.117525 8.081230 -5.225290 3.943287 3.871230 -4.517571 -0.613853 0.941275 -1.543119 10.775190 6.710891 0.916141 -0.160210 -16.389860 2.185111 0.722732 -66.537334 -19.560534 14.250551 22.570812 -30.657401 -33.904516 -5.456141 -22.179006 -16.575146 19.306717 -3.962897 -2.543580 57.703986 5.469987 7.332245 -9.142798 26.340206 -10.064159 12.624427 13.621859 -8.276349 
-27.786690 -97.071274 95.225159 -174.229953 0.704526 85.566427 -1.867624 -0.424190 3.775058 -7.445022 -11.995388 18.415323 -3.535732 4.094707 -16.356115 nan nan nan -2.439663 -4.234101 -21.533334 2.903659 -7.834297 12.596318 3.715338 -7.059176 6.303713 nan nan nan -3.786558 -3.116119 7.201718 7.715906 -5.029911 4.233357 3.646005 -4.278541 -0.637079 0.903704 -1.494936 10.893343 6.782865 0.891768 -0.556807 -16.444226 2.160018 0.605397 -66.373465 -18.983211 14.462391 22.329275 -30.527115 -33.712586 -4.217979 -22.276097 -17.440307 19.140456 -3.605171 -2.465057 57.727803 5.403470 7.725066 -9.074384 26.513394 -10.333038 11.510684 14.001004 -9.133053 
-27.920753 -97.582581 95.306694 -174.527233 0.507158 85.498968 -2.266901 -0.498285 3.731117 -7.235565 -11.576629 17.863760 -3.438674 4.278618 -15.805076 nan nan nan -2.809958 -4.127295 -21.791206 2.825522 -7.602626 13.705682 3.389412 -6.793966 5.986564 nan nan nan -3.598239 -3.076185 7.237660 7.340378 -4.889823 4.370813 3.323396 -4.128056 -0.652311 0.897588 -1.496556 10.997583 6.865254 0.845302 -0.831690 -16.443547 2.293986 0.425526 -66.206302 -18.305756 14.633338 22.118982 -30.347463 -33.139763 -4.195724 -22.115183 -17.614682 19.068643 -3.370757 -2.474959 57.599872 5.329921 8.170842 -8.703383 26.837990 -10.566298 10.937808 14.176549 -9.800134 
-28.027266 -98.084084 95.393394 -174.909298 0.366205 85.348457 -2.571651 -0.409091 3.857381 -7.009772 -11.273792 17.182101 -3.196412 4.444862 -15.177581 nan nan nan -3.045299 -3.893370 -21.916542 2.740531 -7.173022 14.853156 3.301075 -6.523443 5.644111 nan nan nan -3.429837 -3.011428 7.386537 6.985675 -4.648729 4.436379 3.029444 -3.965707 -0.637589 0.889395 -1.540584 11.195688 6.981002 0.782077 -1.018977 -16.473497 2.451760 0.239617 -66.066968 -17.703950 14.647207 21.821505 -30.121307 -32.496051 -4.930158 -21.907029 -17.607617 19.039579 -3.352220 -2.417814 57.485205 5.415243 8.310273 -8.322114 27.222746 -10.334035 10.951661 13.933953 -9.789043 
-28.117096 -98.571037 95.495056 -175.385793 0.261064 85.184272 -2.871552 -0.214276 4.045415 -6.704786 -11.069282 16.432560 -2.926395 4.681051 -14.568726 nan nan nan -3.187151 -3.555668 -22.042004 2.668839 -6.659285 16.177450 3.133562 -6.234299 5.181607 nan nan nan -3.249670 -2.972753 7.580292 6.630225 -4.315546 4.474459 2.806627 -3.695484 -0.678080 0.834985 -1.678105 11.468639 7.142187 0.704250 -1.258235 -16.668767 2.530957 0.177481 -65.867381 -17.176575 14.507898 21.411266 -29.912915 -32.133967 -4.050182 -21.943620 -17.724653 18.969073 -3.290395 -2.154734 57.445312 5.529184 8.197632 -7.989969 27.505263 -10.209954 10.276436 14.119102 -9.694680 
-28.212093 -99.036804 95.611511 -175.817904 0.119760 85.024586 -3.201227 -0.045748 4.244201 -6.460351 -10.976809 15.728981 -2.728851 4.874303 -13.978029 nan nan nan -3.418591 -3.202431 -22.111625 2.689061 -6.107941 17.520517 2.916743 -6.083035 4.837452 nan nan nan -3.030476 -2.920071 7.608960 6.266971 -4.070593 4.709444 2.485542 -3.426554 -0.739440 0.716872 -1.911007 11.783891 7.323596 0.758117 -1.653877 -16.811992 2.486230 0.134486 -65.647981 -16.472694 14.447476 21.122778 -29.676308 -32.082608 -5.067082 -21.615390 -18.547667 18.876906 -3.138495 -2.098257 57.428612 5.586878 8.407049 -7.917134 27.572437 -9.871537 10.988241 13.867648 -9.832720 
-28.290277 -99.455391 95.734039 -176.163258 -0.019182 84.900671 -3.490636 0.089113 4.523960 -6.183078 -10.849004 14.848158 -2.704794 4.909384 -13.398150 nan nan nan -3.666222 -2.958986 -22.181838 2.638185 -5.841924 18.985801 3.102281 -5.778543 4.460142 nan nan nan -2.811579 -2.921420 7.429141 5.874774 -3.882220 5.163166 2.128079 -3.157061 -0.873843 0.722581 -1.921012 12.236799 7.459908 0.636869 -2.135606 -16.917569 2.549629 -0.035059 -65.497133 -15.754566 14.471552 20.927958 -29.228901 -31.596738 -4.288206 -21.782603 -18.746339 18.738982 -2.934046 -1.966346 57.632559 5.531324 8.555195 -7.753480 27.694517 -9.992363 10.091320 14.352440 -10.316125 
-28.366148 -99.856705 95.832848 -176.525530 -0.116355 84.783398 -3.767292 0.225459 4.779055 -5.810996 -10.614115 14.006860 -2.642429 5.057866 -12.854661 nan nan nan -3.837034 -2.743643 -22.176945 2.585325 -5.593352 20.387487 3.222572 -5.478116 4.187428 nan nan nan -2.585816 -2.970811 7.191985 5.514168 -3.723301 5.536128 1.738808 -2.843436 -0.883379 0.794526 -1.914575 12.533253 7.517569 0.456041 -2.381400 -16.808694 2.919852 -0.302302 -65.510376 -15.105803 14.588720 20.485340 -28.839585 -30.850921 -3.315143 -21.683602 -18.797798 18.595934 -2.924977 -1.794198 57.802768 5.667618 8.827010 -7.481828 27.869103 -9.911314 9.141593 14.691122 -10.737509 
-28.463774 -100.245071 95.935646 -176.848411 -0.225748 84.531160 -4.043561 0.403351 5.174724 -5.489766 -10.479228 13.203827 -2.655371 5.156012 -12.231213 nan nan nan -4.039669 -2.604823 -21.924219 2.644604 -5.294637 21.751538 3.396375 -5.295680 3.900219 nan nan nan -2.363419 -2.928655 7.111190 5.160724 -3.565079 5.853228 1.366691 -2.614946 -0.878338 0.793399 -2.016236 12.737988 7.636329 0.344814 -2.476328 -16.688140 3.107264 -0.373179 -65.530559 -14.475262 14.573288 20.024581 -28.502630 -30.455496 -3.059350 -21.554741 -19.351344 18.463118 -2.863209 -1.527855 57.787204 5.763810 9.013635 -7.122492 28.193589 -9.600846 8.922655 14.835470 -11.018878 
-28.587639 -100.654404 96.047974 -177.247524 -0.450997 84.235524 -4.451137 0.535619 5.660457 -5.239745 -10.381125 12.300550 -2.588500 5.384754 -11.524785 nan nan nan -4.373861 -2.415511 -21.638498 2.695955 -5.044132 23.219455 3.618987 -5.215381 3.449782 nan nan nan -2.243908 -2.841520 7.230766 4.789072 -3.331035 5.994512 1.073819 -2.424059 -0.843267 0.617418 -2.141480 12.926625 7.775568 0.423810 -2.668719 -16.685244 3.289390 -0.388356 -65.443259 -13.824309 14.446494 19.608227 -28.241162 -30.141449 -3.282106 -21.391281 -19.841820 18.184042 -2.839109 -1.411029 57.976440 5.847015 9.163240 -6.870395 28.362955 -9.496664 8.851482 14.899528 -11.253572 
-28.679132 -101.054169 96.134636 -177.673870 -0.610157 84.138894 -4.788779 0.574608 5.887486 -4.983505 -10.181538 11.489333 -2.456219 5.667934 -10.984649 nan nan nan -4.622953 -2.180740 -21.617025 2.701559 -5.032786 24.897102 3.966637 -5.107470 2.878663 nan nan nan -2.190291 -2.744182 7.090866 4.465024 -3.071026 6.118931 0.766279 -2.140423 -0.823278 0.649462 -2.264581 13.192658 7.988404 0.357864 -2.717786 -16.558713 3.552510 -0.415381 -65.545371 -13.183884 14.547016 19.376921 -27.789317 -29.730099 -3.661127 -21.230370 -20.208366 18.027223 -2.800581 -1.276960 58.178442 5.832301 9.384800 -6.786736 28.414369 -9.519438 8.923120 15.012428 -11.508253 
-28.738155 -101.428566 96.233910 -178.039937 -0.645175 84.083005 -4.963841 0.573739 6.043187 -4.741931 -10.017806 10.793077 -2.395482 6.022729 -10.605143 nan nan nan -4.728877 -1.937223 -21.527829 2.612341 -5.227646 26.445530 4.358612 -5.037147 2.620696 nan nan nan -2.062380 -2.667807 6.868941 4.198285 -2.836020 6.313564 0.502293 -1.849311 -0.863262 0.729163 -2.321852 13.563738 8.160845 0.168898 -2.961516 -16.502024 3.726916 -0.313910 -65.672728 -12.563556 14.362087 19.135043 -27.379607 -29.521715 -3.489282 -20.964182 -19.910838 17.845369 -2.697240 -0.984647 58.317478 5.705305 9.223009 -6.449271 28.764398 -9.389157 8.434842 15.233538 -11.260910 
-28.815008 -101.786057 96.337219 -178.414356 -0.702726 84.003431 -5.194415 0.646398 6.237697 -4.442093 -9.938983 10.052836 -2.293008 6.269614 -10.087441 nan nan nan -4.803182 -1.797608 -21.336250 2.431162 -5.297010 27.913224 4.497807 -4.977068 2.292389 nan nan nan -1.793060 -2.652469 6.694705 3.881310 -2.574029 6.483876 0.282830 -1.705024 -0.862702 0.561299 -2.265847 14.012267 8.184161 0.090721 -3.468039 -16.751035 4.131375 -0.528356 -65.513644 -11.774398 14.047074 18.551870 -27.032331 -29.003034 -3.385793 -20.891713 -19.679955 17.515738 -2.568273 -0.671638 58.514453 5.699039 9.179305 -6.091291 29.082621 -9.044037 7.872845 15.494413 -10.992517 
-28.916145 -102.171967 96.408623 -178.793870 -0.827948 84.002978 -5.563035 0.612755 6.296956 -4.140985 -9.778111 9.389459 -2.259992 6.528397 -9.519396 nan nan nan -4.993518 -1.621001 -21.236837 2.298904 -5.365872 29.475196 4.479709 -4.907993 1.691350 nan nan nan -1.674621 -2.534423 6.363866 3.543992 -2.275028 6.702334 0.019011 -1.384950 -0.836452 0.796576 -2.478148 14.261706 8.218910 0.179487 -3.484554 -16.699757 4.319161 -0.629771 -65.573786 -11.058125 14.196395 18.204635 -26.650634 -28.758235 -3.106969 -20.821796 -20.180959 17.332303 -2.601189 -0.723320 58.640183 5.464624 9.502088 -5.878682 29.324368 -8.745363 7.741031 15.654941 -11.224650 
-28.999235 -102.571335 96.462898 -179.129448 -0.989228 84.026783 -5.993132 0.520414 6.256794 -3.830513 -9.610486 8.845817 -2.203583 6.957333 -9.061834 nan nan nan -5.218024 -1.417403 -21.096881 2.324634 -5.450417 30.957993 4.492082 -5.026209 1.066558 nan nan nan -1.503675 -2.416219 6.238978 3.206654 -2.010273 6.669026 -0.279714 -1.211519 -0.796539 0.705663 -2.918032 14.488576 8.303884 0.418616 -3.561672 -16.846188 4.875074 -0.806363 -65.313096 -10.283862 14.337295 17.560256 -26.512083 -28.208332 -3.179956 -20.669511 -20.685373 17.150897 -2.815036 -0.781169 58.732537 5.466269 9.966315 -5.397524 29.503871 -8.243586 8.250367 15.732641 -11.899942 
